<?xml version="1.0" standalone="no"?>
<svg xmlns="http://www.w3.org/2000/svg" viewBox="0 0 135.762 36" width="135.762" height="28"><g fill="#ffffff" color="#ffffff" transform="translate(107.762, 4) scale(0.4375)"><svg width="64.0" height="64.0" x="0.0" y="0.0" viewBox="0 0 64 64"><metadata></metadata><g><path d="M56,9H8c-0.552,0-1,0.448-1,1v36c0,0.553,0.448,1,1,1h23v6h-9c-0.552,0-1,0.447-1,1s0.448,1,1,1h20c0.553,0,1-0.447,1-1   s-0.447-1-1-1h-9v-6h23c0.553,0,1-0.447,1-1V10C57,9.448,56.553,9,56,9z M24.707,31.293c0.391,0.391,0.391,1.023,0,1.414   C24.512,32.902,24.256,33,24,33s-0.512-0.098-0.707-0.293l-4-4c-0.391-0.391-0.391-1.023,0-1.414l4-4   c0.391-0.391,1.023-0.391,1.414,0s0.391,1.023,0,1.414L21.414,28L24.707,31.293z M34.97,20.243l-4,16   C30.856,36.697,30.449,37,30.001,37c-0.081,0-0.162-0.01-0.244-0.03c-0.536-0.134-0.861-0.677-0.728-1.212l4-16   c0.133-0.536,0.677-0.866,1.212-0.728C34.778,19.164,35.104,19.707,34.97,20.243z M44.707,28.707l-4,4   C40.512,32.902,40.256,33,40,33s-0.512-0.098-0.707-0.293c-0.391-0.391-0.391-1.023,0-1.414L42.586,28l-3.293-3.293   c-0.391-0.391-0.391-1.023,0-1.414s1.023-0.391,1.414,0l4,4C45.098,27.684,45.098,28.316,44.707,28.707z"></path></g></svg></g><path fill="#ffffff" fill-rule="nonzero" d="M3.97 21.50L3.97 21.50Q2.85 21.50 2.09 21.15Q1.32 20.80 0.86 20.20Q0.40 19.59 0.20 18.79Q0 17.98 0 17.07L0 17.07Q0 16.44 0.08 15.65Q0.16 14.86 0.33 14.06L0.33 14.06L2.75 14.06L2.72 16.50Q2.72 17.27 2.79 17.79Q2.86 18.32 3.01 18.63Q3.15 18.94 3.38 19.07Q3.61 19.21 3.94 19.21L3.94 19.21Q4.21 19.21 4.42 19.10Q4.64 19.00 4.79 18.73Q4.95 18.47 5.03 18.02Q5.11 17.57 5.11 16.89L5.11 16.89L5.14 1.30L8.18 1.30L8.18 16.46Q8.18 18.01 7.83 19.00Q7.48 19.98 6.88 20.54Q6.29 21.09 5.54 21.30Q4.78 21.50 3.97 21.50ZM11.37 17.54L11.37 5.18L14.33 5.18L14.33 17.31Q14.33 18.38 14.66 18.79Q14.99 19.21 15.62 19.21L15.62 19.21Q16.07 19.21 16.49 18.96Q16.91 18.71 17.25 18.26L17.25 18.26L17.25 5.18L20.21 5.18L20.21 21.32L17.95 21.32L17.66 19.59L17.65 19.59Q17.30 20.14 16.90 20.51Q16.51 20.88 16.08 21.10Q15.66 21.32 15.21 21.41Q14.77 21.50 14.32 21.50L14.32 21.50Q12.90 21.50 12.13 20.52Q11.37 19.54 11.37 17.54L11.37 17.54ZM25.54 21.49L25.54 21.49Q24.79 21.49 24.21 21.19Q23.63 20.89 23.23 20.38Q22.83 19.86 22.62 19.15Q22.42 18.45 22.42 17.61L22.42 17.61Q22.42 16.62 22.66 15.84Q22.91 15.07 23.38 14.45Q23.86 13.83 24.56 13.32Q25.27 12.81 26.19 12.35L26.19 12.35Q26.64 12.13 27.19 11.90Q27.75 11.67 28.18 11.51L28.18 11.51L28.18 9.38Q28.18 8.91 28.15 8.50Q28.11 8.10 27.98 7.80Q27.84 7.50 27.57 7.33Q27.30 7.16 26.84 7.16L26.84 7.16Q26.52 7.16 26.22 7.28Q25.92 7.39 25.69 7.68Q25.46 7.96 25.33 8.43Q25.20 8.89 25.20 9.59L25.20 9.59L25.20 10.29L22.93 10.29Q22.83 9.83 22.78 9.45Q22.72 9.07 22.72 8.70L22.72 8.70Q22.72 7.79 23.03 7.10Q23.34 6.41 23.90 5.94Q24.46 5.47 25.23 5.23Q26.00 4.99 26.93 4.99L26.93 4.99Q28.14 4.99 28.93 5.26Q29.73 5.52 30.21 6.05Q30.68 6.57 30.87 7.37Q31.07 8.17 31.07 9.23L31.07 9.23L31.07 21.32L28.86 21.32L28.65 19.93Q28.17 20.63 27.37 21.06Q26.57 21.49 25.54 21.49ZM26.85 19.21L26.85 19.21Q27.22 19.21 27.58 19.01Q27.94 18.82 28.18 18.54L28.18 18.54L28.18 13.49Q27.95 13.58 27.66 13.71Q27.36 13.84 27.02 14.05L27.02 14.05Q26.71 14.25 26.40 14.53Q26.10 14.81 25.86 15.20Q25.62 15.59 25.47 16.07Q25.32 16.56 25.32 17.16L25.32 17.16Q25.32 18.08 25.69 18.64Q26.05 19.21 26.85 19.21ZM34.14 21.32L34.14 5.18L36.42 5.18L36.69 6.90L36.69 6.91Q37.04 6.36 37.45 5.99Q37.85 5.63 38.29 5.40Q38.72 5.18 39.17 5.09Q39.62 4.99 40.07 4.99L40.07 4.99Q41.48 4.99 42.25 5.98Q43.02 6.97 43.02 8.95L43.02 8.95L43.02 21.32L40.05 21.32L40.05 9.06Q40.05 7.99 39.73 7.58Q39.40 7.16 38.77 7.16L38.77 7.16Q38.32 7.16 37.88 7.45Q37.44 7.75 37.10 8.26L37.10 8.26L37.10 21.32L34.14 21.32ZM51.41 21.32L51.41 1.30L54.45 1.30Q55.02 1.30 55.71 1.35Q56.39 1.41 57.08 1.60Q57.76 1.79 58.40 2.19Q59.04 2.59 59.53 3.28Q60.02 3.96 60.32 4.99Q60.62 6.02 60.62 7.50L60.62 7.50L60.62 8.20Q60.62 9.81 60.35 10.95Q60.07 12.09 59.61 12.87Q59.16 13.65 58.55 14.12Q57.95 14.59 57.30 14.83Q56.65 15.07 55.99 15.15Q55.32 15.22 54.74 15.22L54.74 15.22L54.45 15.22L54.45 21.32L51.41 21.32ZM54.45 13.00L54.60 13.00Q55.42 13.00 55.98 12.76Q56.54 12.52 56.88 12.01Q57.21 11.50 57.36 10.69Q57.50 9.89 57.50 8.77L57.50 8.77L57.50 6.96Q57.50 6.07 57.38 5.42Q57.25 4.77 56.91 4.35Q56.58 3.93 56.02 3.72Q55.45 3.52 54.60 3.52L54.60 3.52L54.45 3.52L54.45 13.00ZM64.96 21.49L64.96 21.49Q64.21 21.49 63.63 21.19Q63.05 20.89 62.65 20.38Q62.25 19.86 62.04 19.15Q61.84 18.45 61.84 17.61L61.84 17.61Q61.84 16.62 62.09 15.84Q62.33 15.07 62.81 14.45Q63.28 13.83 63.98 13.32Q64.69 12.81 65.61 12.35L65.61 12.35Q66.06 12.13 66.62 11.90Q67.17 11.67 67.61 11.51L67.61 11.51L67.61 9.38Q67.61 8.91 67.57 8.50Q67.54 8.10 67.40 7.80Q67.27 7.50 67.00 7.33Q66.73 7.16 66.26 7.16L66.26 7.16Q65.94 7.16 65.64 7.28Q65.34 7.39 65.12 7.68Q64.89 7.96 64.75 8.43Q64.62 8.89 64.62 9.59L64.62 9.59L64.62 10.29L62.36 10.29Q62.25 9.83 62.20 9.45Q62.14 9.07 62.14 8.70L62.14 8.70Q62.14 7.79 62.46 7.10Q62.77 6.41 63.32 5.94Q63.88 5.47 64.65 5.23Q65.43 4.99 66.35 4.99L66.35 4.99Q67.56 4.99 68.36 5.26Q69.15 5.52 69.63 6.05Q70.10 6.57 70.29 7.37Q70.49 8.17 70.49 9.23L70.49 9.23L70.49 21.32L68.29 21.32L68.07 19.93Q67.59 20.63 66.79 21.06Q65.99 21.49 64.96 21.49ZM66.27 19.21L66.27 19.21Q66.64 19.21 67.00 19.01Q67.36 18.82 67.61 18.54L67.61 18.54L67.61 13.49Q67.37 13.58 67.08 13.71Q66.79 13.84 66.45 14.05L66.45 14.05Q66.13 14.25 65.82 14.53Q65.52 14.81 65.28 15.20Q65.04 15.59 64.89 16.07Q64.75 16.56 64.75 17.16L64.75 17.16Q64.75 18.08 65.11 18.64Q65.47 19.21 66.27 19.21ZM73.56 21.32L73.56 0L76.52 0L76.52 4.30L76.43 6.43L76.44 6.45Q76.64 6.16 76.90 5.91Q77.17 5.65 77.50 5.44Q77.84 5.24 78.24 5.12Q78.64 5.00 79.13 5.00L79.13 5.00Q79.37 5.00 79.72 5.05Q80.06 5.10 80.43 5.29Q80.80 5.47 81.17 5.84Q81.54 6.21 81.83 6.86Q82.11 7.50 82.29 8.46Q82.48 9.42 82.48 10.79L82.48 10.79L82.48 15.68Q82.48 17.05 82.29 18.01Q82.11 18.97 81.82 19.62Q81.53 20.27 81.15 20.65Q80.78 21.02 80.39 21.21Q80.00 21.40 79.64 21.45Q79.28 21.50 79.01 21.50L79.01 21.50Q78.45 21.50 77.99 21.36Q77.54 21.22 77.20 20.98Q76.85 20.74 76.59 20.44Q76.32 20.13 76.13 19.82L76.13 19.82L75.88 21.32L73.56 21.32ZM76.52 8.25L76.52 18.05Q76.62 18.27 76.75 18.48Q76.89 18.69 77.06 18.85Q77.24 19.01 77.47 19.11Q77.71 19.21 78 19.21L78 19.21Q78.33 19.21 78.60 19.08Q78.87 18.96 79.07 18.64Q79.27 18.32 79.38 17.74Q79.49 17.17 79.49 16.27L79.49 16.27L79.49 10.09Q79.49 9.19 79.38 8.62Q79.27 8.05 79.07 7.72Q78.88 7.39 78.61 7.28Q78.34 7.16 78.01 7.16L78.01 7.16Q77.46 7.16 77.10 7.48Q76.75 7.80 76.52 8.25L76.52 8.25ZM85.20 21.32L85.20 0L88.16 0L88.16 21.32L85.20 21.32ZM95.32 21.49L95.32 21.49Q94.80 21.49 94.27 21.41Q93.74 21.33 93.24 21.07Q92.74 20.81 92.30 20.33Q91.86 19.85 91.54 19.07Q91.21 18.28 91.02 17.13Q90.83 15.98 90.83 14.39L90.83 14.39L90.83 11.86Q90.83 10.29 91.03 9.17Q91.22 8.05 91.55 7.29Q91.89 6.53 92.33 6.08Q92.78 5.63 93.28 5.38Q93.77 5.14 94.30 5.07Q94.83 4.99 95.33 4.99L95.33 4.99Q95.81 4.99 96.33 5.06Q96.84 5.13 97.34 5.36Q97.83 5.59 98.27 6.04Q98.71 6.49 99.04 7.25Q99.38 8.02 99.57 9.15Q99.76 10.28 99.76 11.86L99.76 11.86L99.76 14.39Q99.76 15.96 99.56 17.10Q99.36 18.23 99.02 19.02Q98.68 19.80 98.24 20.29Q97.79 20.78 97.30 21.05Q96.81 21.32 96.30 21.40Q95.79 21.49 95.32 21.49ZM95.34 19.21L95.34 19.21Q95.74 19.21 96.02 19.00Q96.29 18.80 96.46 18.33Q96.63 17.86 96.71 17.09Q96.79 16.32 96.79 15.19L96.79 15.19L96.79 11.21Q96.79 10.08 96.71 9.30Q96.63 8.53 96.46 8.06Q96.29 7.58 96.02 7.37Q95.74 7.16 95.34 7.16L95.34 7.16Q94.92 7.16 94.63 7.37Q94.35 7.58 94.16 8.06Q93.97 8.53 93.89 9.30Q93.81 10.08 93.81 11.21L93.81 11.21L93.81 15.19Q93.81 16.32 93.89 17.09Q93.97 17.86 94.16 18.33Q94.35 18.80 94.63 19.00Q94.92 19.21 95.34 19.21Z" transform="translate(0, 7.249)"></path></svg>